<svg width="40" height="27" viewBox="0 0 40 27" fill="none" xmlns="http://www.w3.org/2000/svg">
<path fill-rule="evenodd" clip-rule="evenodd" d="M20 0C26.2475 0 31.4913 4.29675 32.9377 10.0963C36.9368 10.7083 40 14.1631 40 18.3333C40 22.9357 36.269 26.6667 31.6667 26.6667H10C4.47715 26.6667 0 22.1895 0 16.6667C0 11.697 3.62523 7.57398 8.37548 6.79795C10.6616 2.74032 15.0108 0 20 0ZM8.9129 10.0877L10.4935 9.82946L11.2796 8.43418C12.9991 5.3823 16.2624 3.33333 20 3.33333C24.6812 3.33333 28.6185 6.55285 29.7033 10.9029L30.2403 13.0556L32.4335 13.3913C34.83 13.758 36.6667 15.8342 36.6667 18.3333C36.6667 21.0948 34.4282 23.3333 31.6667 23.3333H10C6.3181 23.3333 3.33333 20.3485 3.33333 16.6667C3.33333 13.3568 5.74873 10.6046 8.9129 10.0877Z" fill="#2E3A59"/>
<path d="M22.4167 13.3333H26.6667L20 20L13.3334 13.3333H17.5834V8.33334H22.4167V13.3333Z" fill="#2E3A59"/>
</svg>
