<svg width="35" height="35" viewBox="0 0 35 35" fill="none" xmlns="http://www.w3.org/2000/svg">
<path d="M17.5 2.73438C9.35165 2.73438 2.73438 9.35167 2.73438 17.5C2.73438 25.6483 9.35165 32.2656 17.5 32.2656C25.6484 32.2656 32.2656 25.6483 32.2656 17.5C32.2656 9.35167 25.6484 2.73438 17.5 2.73438ZM17.5 3.82813C19.5944 3.82813 21.5693 4.31066 23.3426 5.15045C22.062 5.40856 20.9734 5.971 20.7129 5.91309C20.3138 5.82449 18.3806 6.15978 17.6709 6.42578C16.9612 6.69222 17.028 7.03068 16.8506 7.0752C16.6728 7.12004 16.5783 7.27738 16.3037 7.58789C16.0288 7.89819 16.4404 8.27148 16.4404 8.27148C16.4404 8.27148 17.4935 8.50839 17.6709 7.72461C17.7757 7.25878 17.6259 8.12197 17.6709 8.47656C17.7152 8.83149 18.376 8.91997 18.7305 8.47656C18.8903 8.27695 18.868 7.78854 18.9697 7.62207C19.0949 7.41874 19.3703 7.57449 19.5166 7.55371C19.6048 7.54277 19.4035 7.69196 19.5166 7.75879C19.7431 7.89256 20.2097 7.66369 20.0977 8.20313C20.0527 8.42024 19.3659 8.46382 19.2773 8.78418C19.1881 9.10454 19.0381 9.29688 19.0381 9.29688L17.5684 9.33106L17.0898 8.64746C17.0898 8.64746 16.6235 8.84926 16.748 9.2627C16.8335 9.54784 16.6113 9.87793 16.6113 9.87793C16.6113 9.87793 15.8594 9.99813 15.8594 10.2197C15.8594 10.3415 15.5528 10.3567 15.3809 10.4248C15.2397 10.4806 15.1443 10.7126 15.0049 10.7324C14.9215 10.7434 14.4023 10.8186 14.2871 10.835C13.9751 10.8732 14.1162 10.9446 14.1162 11.0742C14.1162 11.2515 14.6973 11.2793 14.6973 11.2793C14.6973 11.2793 15.0693 11.4236 14.9365 11.6895C14.8034 11.9559 15.0316 12.0654 14.7656 12.0654C14.6501 12.0654 14.3825 12.0291 14.1162 12.0313C13.7717 12.0313 13.4406 11.9232 13.4326 12.0654C13.3998 12.613 13.3984 13.3984 13.3984 13.3984C13.3984 13.3984 13.8651 13.6289 14.1162 13.5693C14.4642 13.4884 14.9734 13.7608 15.21 13.125C15.2283 13.0758 15.2406 12.9697 15.2783 12.9199C15.443 12.7041 15.621 12.2691 15.8936 12.1338C16.061 12.0496 16.2932 12.104 16.3721 12.0996C16.5492 12.0887 16.8506 11.8604 16.8506 11.8604C16.8506 11.8604 17.6353 11.9664 17.8418 12.749C17.903 12.9798 17.8451 13.3591 17.9785 13.4326C18.0595 13.4775 18.4229 13.0908 18.4229 13.0908L18.833 13.125L18.5938 12.5781L17.8418 11.7236L17.9785 11.6574C17.9785 11.6574 18.5488 11.6957 18.5938 11.8283C18.6377 11.9615 19.3248 12.2985 19.209 12.6828C19.0167 13.3186 19.4824 13.4689 19.4824 13.4689C19.4824 13.4689 19.8864 13.564 20.0635 13.2297C20.2174 12.9381 20.2344 12.6828 20.2344 12.6828L20.7471 12.5781C20.7471 12.5781 20.6981 11.5138 21.2598 11.4844C21.8214 11.4559 21.875 11.4844 21.875 11.4844C21.875 11.4844 23.1087 11.8919 23.2422 12.2021C23.3747 12.5123 23.4359 12.8074 23.0371 12.8516C22.638 12.8964 22.0459 12.8195 22.0459 12.8195C22.0459 12.8195 20.4772 12.5816 20.6104 13.0246C20.7432 13.4681 20.8838 13.9133 20.8838 13.9133C20.8838 13.9133 21.2247 13.8775 21.5332 13.9453C21.8628 14.0208 22.2852 13.9795 22.2852 13.9795L22.3535 14.7314L22.1484 14.7998C21.925 14.8622 21.2663 14.9049 21.0889 14.9707C20.9114 15.0363 18.9798 14.6992 18.9355 14.7656C18.8913 14.8313 18.2647 15.059 17.9102 14.9707C17.5553 14.8821 17.4658 14.0479 17.4658 14.0479C17.4658 14.0479 17.4021 13.65 17.1582 13.6719C16.914 13.6938 15.2441 13.8428 15.2441 13.8428C15.2441 13.8428 14.6973 14.0864 14.6973 14.2188C14.6973 14.2188 14.5426 14.1076 14.3213 14.2188C14.0996 14.3301 13.7608 14.315 13.6719 14.4922C13.5833 14.6699 13.2341 15.0019 13.0566 15.3125C12.8796 15.6225 12.3698 15.6466 12.2363 16.2012C12.1032 16.7553 12.0091 17.6818 12.0312 18.0811C12.0533 18.4802 12.0426 19.4703 12.4414 19.6875C12.8405 19.9054 13.3698 20.4442 13.5693 20.6445C13.7686 20.8437 14.8376 21.0065 14.9707 20.918C15.1035 20.8294 15.5814 20.6445 15.8252 20.6445C16.0694 20.6445 16.5931 20.6828 16.748 20.8154C16.903 20.9487 17.0931 21.2347 17.2266 21.5674C17.359 21.8999 17.4919 22.4612 17.6025 22.6611C17.7136 22.8606 18.1342 23.2409 17.9785 23.6182C17.8236 23.9953 17.5583 24.371 17.6025 24.8145C17.6468 25.2574 17.9124 25.8454 18.0127 26.0449C18.1136 26.244 18.7529 26.8704 18.7305 27.0703C18.7087 27.2695 18.8971 27.2203 19.1406 27.3096C19.3845 27.3982 20.4212 27.1114 20.5762 26.9336C20.7315 26.7563 20.972 26.1966 21.2598 25.9082C21.5479 25.6197 22.1455 25.1472 22.4561 24.8145C22.7659 24.4817 23.0833 24.176 23.1055 23.7549C23.1269 23.3331 22.8834 22.4062 23.1055 22.251C23.3275 22.0957 23.635 21.8557 23.8574 21.5674C24.0791 21.2794 24.5504 21.3021 24.8828 20.3711C25.2155 19.44 25.3252 19.151 25.2588 19.1064C25.1931 19.0616 24.6644 19.2813 24.5752 19.4141C24.4866 19.5473 23.9684 19.5803 23.8574 19.6875C23.7467 19.7947 23.2422 19.6875 23.2422 19.6875C23.2422 19.6875 23.4555 18.8476 23.3447 18.5596C23.2337 18.2717 22.6677 17.147 22.4902 16.748C22.3446 16.4209 22.3192 16.042 22.3877 15.791C22.416 15.8315 22.434 15.8542 22.4561 15.8936C22.5346 16.0352 22.9601 16.5385 23.1396 17.0557C23.5232 18.1642 23.96 18.9697 23.96 18.9697C23.96 18.9697 24.5376 18.9917 25.498 18.252C26.1517 17.7495 26.8505 17.7234 26.9678 17.4658C27.1895 16.9778 26.2842 16.543 26.2842 16.543H25.4639L24.8486 15.4834L25.0195 15.415C25.0195 15.415 25.7008 16.2012 26.0107 16.2012C26.3206 16.2012 27.1461 16.13 27.4121 16.4404C27.6781 16.7507 28.5094 17.2753 28.6426 17.8076C28.7761 18.3394 28.7084 19.0828 28.9502 19.3457C29.2905 19.7156 29.5996 19.6875 29.5996 19.6875L30.0098 18.7305L30.9668 17.6367L31.1697 17.5342C31.1511 25.0755 25.0457 31.1719 17.5 31.1719C13.9195 31.1719 10.6733 29.7864 8.2373 27.5381L8.64746 26.9336L9.12598 25.0195L7.96387 24.3018L6.63086 23.8574L5.74219 21.7041C5.74219 21.7041 4.91274 21.0336 4.22546 20.7236C3.97508 19.688 3.82812 18.6131 3.82812 17.5C3.82812 16.6934 3.9124 15.9075 4.04602 15.1395C4.88656 14.4953 6.01562 13.9795 6.01562 13.9795C6.01562 13.9795 6.63897 13.9084 5.57129 12.1338C5.41711 11.8775 5.32701 11.6415 5.26794 11.416C5.71646 10.515 6.25065 9.6652 6.87866 8.89099C6.82427 9.21476 6.61158 10.5631 7.00684 10.8008C7.44954 11.0668 7.87464 10.2464 7.96387 9.98047C8.05246 9.71447 8.9762 8.70084 9.33105 8.16895C9.58395 7.78957 9.49456 7.05316 9.23492 6.62231C11.5312 4.8755 14.3887 3.82813 17.5 3.82813ZM14.7998 6.28906C14.5876 6.30984 14.1504 6.42414 14.1504 6.76758V7.41699C14.1504 7.41699 14.019 7.65089 13.9453 7.72461C13.8709 7.79899 13.9355 8.13859 13.9795 8.27148C14.0238 8.40503 14.0479 8.81836 14.0479 8.81836C14.0479 8.81836 14.2621 8.93074 14.3213 8.98926C14.3805 9.04723 14.8857 9.17552 15.1074 9.05762C15.3291 8.93982 15.4576 8.62816 15.6201 8.61328C15.7827 8.59797 15.6837 8.59906 15.6543 8.47656C15.6249 8.35866 15.791 7.92969 15.791 7.92969L15.3467 7.55371C15.3467 7.55371 15.0777 6.97895 15.1074 6.80176C15.1365 6.62391 14.8885 6.31083 14.9023 6.28906C14.9056 6.27813 14.8705 6.27813 14.7998 6.28906ZM13.6377 7.58789C13.5775 7.61414 13.4615 7.7595 13.3984 7.79297C13.3143 7.83563 13.3404 7.98268 13.2959 8.10059C13.2516 8.21893 13.125 8.64746 13.125 8.64746L13.3984 8.75C13.3978 8.75 13.8327 8.66791 13.877 8.5791C13.9126 8.50801 13.7842 8.12027 13.7402 7.96387C13.7293 7.92668 13.7402 7.89551 13.7402 7.89551L13.6719 7.62207C13.6607 7.6002 13.6577 7.57805 13.6377 7.58789ZM25.0879 11.3477C25.1885 11.3477 25.3853 11.4174 25.4297 11.4502C25.4889 11.495 25.4889 12.0141 25.4297 12.3389C25.3705 12.6644 25.6146 12.8564 25.7031 12.8857C25.7924 12.9153 25.8551 13.6268 25.8398 13.7744C25.8253 13.9222 25.4078 14.0333 25.293 14.0479C25.1785 14.0632 24.6974 14.0588 24.7119 13.8428C24.7271 13.628 24.6296 12.9274 24.541 12.6465C24.4524 12.3656 24.4763 11.9686 24.6094 11.8945C24.7425 11.8213 25.0195 11.3818 25.0195 11.3818C25.0307 11.3578 25.0543 11.3488 25.0879 11.3477ZM24.4727 23.4473C24.4195 23.4473 24.3424 23.4585 24.2676 23.4814C24.2676 23.4814 24.2364 24.1364 23.9258 24.3359C23.6159 24.5355 23.4131 24.9226 23.4131 25.1221C23.4131 25.3218 23.3467 25.5034 23.4131 25.7031C23.4795 25.9026 23.6309 26.0673 23.8232 26.0449C24.0159 26.0231 24.2233 25.6071 24.2676 25.4297C24.3119 25.2524 24.4772 24.87 24.6094 24.7461C24.7425 24.623 24.7686 24.2745 24.7461 24.0967C24.7271 23.9417 24.8443 23.4388 24.4727 23.4473Z" fill="#373759"/>
</svg>
