<svg width="45" height="45" viewBox="0 0 45 45" fill="none" xmlns="http://www.w3.org/2000/svg">
<rect width="45" height="45" fill="white"/>
<circle cx="22" cy="23" r="20" fill="#FF7235"/>
<path d="M23.1524 24.1522L21.0779 26.2268L18.773 23.9219L20.8476 21.8473L19.7705 20.7703L17.6959 22.8448L16.1082 21.2571L12.1674 25.1979C10.3248 27.0405 10.2729 30.0055 12.0107 31.912L9 34.9227L10.077 35.9998L13.0875 32.9893C13.985 33.8084 15.1392 34.257 16.3623 34.257C17.6616 34.257 18.8831 33.751 19.8018 32.8323L23.7426 28.8915L22.1549 27.3038L24.2294 25.2292L23.1524 24.1522ZM18.7248 31.7553C18.0937 32.3863 17.2547 32.7338 16.3623 32.7338C15.4699 32.7338 14.6309 32.3863 13.9998 31.7553L13.2445 30.9999C11.9419 29.6972 11.9419 27.5776 13.2445 26.2749L16.1083 23.4112L21.5885 28.8914L18.7248 31.7553Z" fill="#F3F4F6"/>
<path d="M35 11.077L33.9229 10L30.9125 13.0104C30.015 12.1914 28.8608 11.7428 27.6377 11.7428C26.3384 11.7428 25.1169 12.2487 24.1982 13.1675L20.2574 17.1083L27.8917 24.7426L31.8325 20.8018C33.6751 18.9592 33.7271 15.9942 31.9893 14.0878L35 11.077ZM30.7555 19.7248L27.8917 22.5885L22.4115 17.1083L25.2752 14.2445C25.9063 13.6135 26.7453 13.266 27.6377 13.266C28.5301 13.266 29.3691 13.6135 30.0001 14.2445L30.7555 14.9998C32.0581 16.3025 32.0581 18.4221 30.7555 19.7248Z" fill="#F3F4F6"/>
</svg>
