<svg width="63" height="66" viewBox="0 0 63 66" fill="none" xmlns="http://www.w3.org/2000/svg">
<path opacity="0.05" fill-rule="evenodd" clip-rule="evenodd" d="M23 -13.9999C0.92 -13.9999 -17 3.92006 -17 26.0001C-17 48.0801 0.92 66.0001 23 66.0001C45.08 66.0001 63 48.0801 63 26.0001C63 3.92006 45.08 -13.9999 23 -13.9999ZM15 44.0001L39 26.0001L15 8.00006V44.0001ZM-9 26.0001C-9 43.6401 5.36 58.0001 23 58.0001C40.64 58.0001 55 43.6401 55 26.0001C55 8.36006 40.64 -5.99994 23 -5.99994C5.36 -5.99994 -9 8.36006 -9 26.0001Z" fill="#373759"/>
</svg>
