<svg width="52" height="52" viewBox="0 0 52 52" fill="none" xmlns="http://www.w3.org/2000/svg">
<path fill-rule="evenodd" clip-rule="evenodd" d="M26 6.10352e-05C11.648 6.10352e-05 0 11.6481 0 26.0001C0 40.3521 11.648 52.0001 26 52.0001C40.352 52.0001 52 40.3521 52 26.0001C52 11.6481 40.352 6.10352e-05 26 6.10352e-05ZM20.8 37.7001L36.4 26.0001L20.8 14.3001V37.7001ZM5.2 26.0001C5.2 37.4661 14.534 46.8001 26 46.8001C37.466 46.8001 46.8 37.4661 46.8 26.0001C46.8 14.5341 37.466 5.20006 26 5.20006C14.534 5.20006 5.2 14.5341 5.2 26.0001Z" fill="#19A4EC"/>
</svg>
