<svg width="60" height="60" viewBox="0 0 60 60" fill="none" xmlns="http://www.w3.org/2000/svg">
<circle opacity="0.75" cx="30" cy="30" r="30" fill="#373759"/>
<path d="M28.5423 32.944L31.7463 31.864C31.2423 31.504 30.9543 30.82 30.9543 30.244C30.9543 27.04 37.3623 26.608 37.3623 21.28C37.3623 18.04 34.5903 15.628 30.0543 15.628C26.8143 15.628 24.0423 16.924 22.2063 19.192L24.6543 21.892C25.8423 20.344 27.4263 19.372 29.6583 19.372C31.9623 19.372 33.0783 20.56 33.0783 21.964C33.0783 25.024 27.2823 25.456 27.2823 29.848C27.2823 31.036 27.6783 32.116 28.5423 32.944ZM29.8383 40.396C31.2063 40.396 32.3583 39.208 32.3583 37.84C32.3583 36.508 31.2063 35.356 29.8383 35.356C28.4703 35.356 27.3183 36.508 27.3183 37.84C27.3183 39.208 28.4703 40.396 29.8383 40.396Z" fill="#F3F4F6"/>
</svg>
