<svg width="20" height="23" viewBox="0 0 20 23" fill="none" xmlns="http://www.w3.org/2000/svg">
<g clip-path="url(#clip0)">
<path d="M13.3333 0H6.66667C5.44111 0 4.44444 0.996667 4.44444 2.22222V3.33333H0V5.55556H2.22222V20C2.22222 21.2256 3.21889 22.2222 4.44444 22.2222H15.5556C16.7811 22.2222 17.7778 21.2256 17.7778 20V5.55556H20V3.33333H15.5556V2.22222C15.5556 0.996667 14.5589 0 13.3333 0ZM6.66667 2.22222H13.3333V3.33333H6.66667V2.22222ZM15.5556 20H4.44444V5.55556H15.5556V20Z" fill="#CB4B6A"/>
<path d="M6.66666 7.77783H8.88888V17.7778H6.66666V7.77783Z" fill="#CB4B6A"/>
<path d="M11.1111 7.77783H13.3333V17.7778H11.1111V7.77783Z" fill="#CB4B6A"/>
</g>
<defs>
<clipPath id="clip0">
<rect width="20" height="22.2222" fill="white"/>
</clipPath>
</defs>
</svg>
